<svg xmlns="http://www.w3.org/2000/svg" viewBox="0 0 512 512">
    <g>
        <circle cx="80.138" cy="79.035" r="74.626" fill="#10b981"/>
        <path d="M80.14 112.354c-18.373 0-33.321-14.948-33.321-33.321S61.767 45.711 80.14 45.711s33.321 14.948 33.321 33.321-14.948 33.322-33.321 33.322z" fill="#a7f3d0"/>
        <circle cx="431.862" cy="79.035" r="74.626" fill="#10b981"/>
        <path d="M431.86 112.354c18.373 0 33.321-14.948 33.321-33.321s-14.948-33.321-33.321-33.321c-18.373 0-33.321 14.948-33.321 33.321s14.948 33.321 33.321 33.321z" fill="#a7f3d0" />
        <path d="M256 507.591c191.742 0 256-140.063 256-237.647S441.968 62.145 373.085 44.924 308.794 38.913 256 38.913s-48.201-11.21-117.085 6.011S0 172.359 0 269.943s64.258 237.648 256 237.648z" fill="#34d399"/>
        <path d="M51.509 269.943c0-97.585 70.032-207.798 138.915-225.019 14.516-3.629 25.761-5.992 34.976-7.467-24.409-2.349-34.625-5.498-86.485 7.467C70.032 62.145 0 172.359 0 269.943S64.258 507.59 256 507.59c8.856 0 17.437-.303 25.755-.883C109.972 494.739 51.509 363.02 51.509 269.943z" style="opacity:0.1;" fill="#000000"/>
        <circle cx="147.12" cy="173.338" r="19.687" fill="#064e3b"/>
        <circle cx="364.88" cy="173.338" r="19.687" fill="#064e3b"/>
        <path d="m329.201 217.373-.896-1.517H183.696l-.94 1.595c-12.021 20.964-15.954 50.499-15.954 86.655.642 95.354 31.639 102.9 89.199 102.9s88.557-7.546 89.199-102.9c-.001-36.2-3.943-65.764-15.999-86.733z" fill="#a7f3d0"/>
        <path d="M304.084 316.959c-22.253 0-40.357-18.104-40.357-40.357v-33.55a7.726 7.726 0 1 0-15.452 0v33.55c0 22.253-18.104 40.357-40.357 40.357a7.726 7.726 0 1 0 0 15.452c20.456 0 38.367-11.069 48.084-27.526 9.718 16.457 27.627 27.526 48.084 27.526a7.725 7.725 0 1 0-.002-15.452z" fill="#064e3b"/>
        <path d="M183.696 215.856c32.192 8.659 42.811 27.196 72.304 27.196s40.112-18.537 72.304-27.196c-13.203-21.785-35.639-33.858-72.304-33.858s-59.101 12.073-72.304 33.858z" fill="#065f46"/>
    </g>
</svg>