<svg xmlns="http://www.w3.org/2000/svg" viewBox="0 0 512 512">
    <g>
        <linearGradient id="a" x1="256" x2="256" y1="512" y2="0" gradientUnits="userSpaceOnUse">
            <stop stop-opacity="1" stop-color="#10b981" offset="0"/>
            <stop stop-opacity="1" stop-color="#6ee7b7" offset="1"/>
        </linearGradient>
        <linearGradient id="b" x1="256" x2="256" y1="512" y2="121.007" gradientUnits="userSpaceOnUse">
            <stop stop-opacity="1" stop-color="#d1fae5" offset="0"/>
            <stop stop-opacity="1" stop-color="#d1fae5" offset="1"/>
        </linearGradient>
        <path fill="url(#a)" d="m512 361-30-30h-61l-30-30v-81.508L271 147.49V91h45c8.291 0 15-6.709 15-15V15c0-8.291-6.709-15-15-15h-60c-8.291 0-15 6.709-15 15v132.49l-120 72.003V301l-31 30H30L0 361v30l30 15-30 15v30l30 31h60l31 30h60l30-30h90l30 30h60l30-30h61l30-31v-30l-30-15 30-15z"/>
        <path fill="url(#b)" d="M211 256c0 24.814 20.186 45 45 45s45-20.186 45-45-20.186-45-45-45-45 20.186-45 45zm-97.28-17.139L256 153.49l142.28 85.371c7.086 4.251 16.312 1.974 20.581-5.142 4.263-7.104 1.963-16.318-5.142-20.581l-150-90a15.044 15.044 0 0 0-15.439 0l-150 90c-7.104 4.263-9.404 13.477-5.142 20.581s13.463 9.405 20.582 5.142zM0 316v45h45c8.291 0 15 6.709 15 15s-6.709 15-15 15H0v30h45c8.291 0 15 6.709 15 15s-6.709 15-15 15H0v46c0 8.291 6.709 15 15 15h106V301H15c-8.291 0-15 6.709-15 15zm316 75H196c-8.284 0-15 6.716-15 15v106h150V406c0-8.284-6.716-15-15-15zm151-30h45v-45c0-8.291-6.709-15-15-15H391v211h106c8.291 0 15-6.709 15-15v-46h-45c-8.291 0-15-6.709-15-15s6.709-15 15-15h45v-30h-45c-8.291 0-15-6.709-15-15s6.709-15 15-15zm-151-30H196c-8.291 0-15 6.709-15 15s6.709 15 15 15h120c8.291 0 15-6.709 15-15s-6.709-15-15-15z"/>
    </g>
</svg>