<svg xmlns="http://www.w3.org/2000/svg" viewBox="0 0 512 512">
    <g>
        <linearGradient id="a" x1="256" x2="256" y1="512" y2="80" gradientUnits="userSpaceOnUse">
            <stop stop-opacity="1" stop-color="#d1fae5" offset="0"/>
            <stop stop-opacity="1" stop-color="#d1fae5" offset="0.997"/>
        </linearGradient>
        <linearGradient id="b" x1="256" x2="256" y1="452" y2="0" gradientUnits="userSpaceOnUse">
            <stop stop-opacity="1" stop-color="#10b981" offset="0"/>
            <stop stop-opacity="1" stop-color="#6ee7b7" offset="1"/>
        </linearGradient>
        <path fill="url(#a)" d="M366 80H146c-46.869 0-85 38.131-85 85v272c0 41.355 33.645 75 75 75h240c41.355 0 75-33.645 75-75V165c0-46.869-38.131-85-85-85z"/>
        <path fill="url(#b)" d="m440.152 39.241-16.883 63.007C408.15 88.438 388.043 80 366 80h-19.591l16.469-61.464C366.452 5.199 380.16-2.715 393.497.858l28.977 7.765c13.337 3.573 21.252 17.282 17.678 30.618zM165.591 80l-16.469-61.464C145.548 5.199 131.84-2.715 118.503.858L89.525 8.623c-13.337 3.573-21.251 17.282-17.678 30.619l16.883 63.007C103.85 88.438 123.957 80 146 80zM231 55c0-2.757 2.243-5 5-5h40c2.757 0 5 2.243 5 5v25h30V55c0-19.299-15.701-35-35-35h-40c-19.299 0-35 15.701-35 35v25h30zm105 165c8.284 0 15-6.716 15-15v-15h15c8.284 0 15-6.716 15-15s-6.716-15-15-15H146c-8.284 0-15 6.716-15 15s6.716 15 15 15h175v15c0 8.284 6.716 15 15 15zm20 42H156c-19.299 0-35 15.701-35 35v25h270v-25c0-19.299-15.701-35-35-35zm-25 105c0 8.284-6.716 15-15 15s-15-6.716-15-15v-15H121v65c0 19.299 15.701 35 35 35h200c19.299 0 35-15.701 35-35v-65h-60z"/>
    </g>
</svg>